solid arctic_main_enclosure
  facet normal 0.0 0.0 1.0
    outer loop
      vertex 0.0 0.0 0.0
      vertex 95.0 0.0 0.0
      vertex 95.0 75.0 0.0
    endloop
  endfacet
  facet normal 0.0 0.0 1.0
    outer loop
      vertex 0.0 0.0 0.0
      vertex 95.0 75.0 0.0
      vertex 0.0 75.0 0.0
    endloop
  endfacet
  facet normal 0.0 0.0 -1.0
    outer loop
      vertex 0.0 0.0 65.0
      vertex 95.0 75.0 65.0
      vertex 95.0 0.0 65.0
    endloop
  endfacet
  facet normal 0.0 0.0 -1.0
    outer loop
      vertex 0.0 0.0 65.0
      vertex 0.0 75.0 65.0
      vertex 95.0 75.0 65.0
    endloop
  endfacet
endsolid arctic_main_enclosure