solid temperate_main_enclosure
  facet normal 0.0 0.0 1.0
    outer loop
      vertex 0.0 0.0 0.0
      vertex 90.0 0.0 0.0
      vertex 90.0 70.0 0.0
    endloop
  endfacet
  facet normal 0.0 0.0 1.0
    outer loop
      vertex 0.0 0.0 0.0
      vertex 90.0 70.0 0.0
      vertex 0.0 70.0 0.0
    endloop
  endfacet
  facet normal 0.0 0.0 -1.0
    outer loop
      vertex 0.0 0.0 50.0
      vertex 90.0 70.0 50.0
      vertex 90.0 0.0 50.0
    endloop
  endfacet
  facet normal 0.0 0.0 -1.0
    outer loop
      vertex 0.0 0.0 50.0
      vertex 0.0 70.0 50.0
      vertex 90.0 70.0 50.0
    endloop
  endfacet
endsolid temperate_main_enclosure