solid tropical_drainage_system
  facet normal 0.0 0.0 1.0
    outer loop
      vertex 10.0 10.0 0.0
      vertex 85.0 10.0 0.0
      vertex 85.0 20.0 0.0
    endloop
  endfacet
  facet normal 0.0 0.0 1.0
    outer loop
      vertex 10.0 10.0 0.0
      vertex 85.0 20.0 0.0
      vertex 10.0 20.0 0.0
    endloop
  endfacet
  facet normal 0.0 0.0 -1.0
    outer loop
      vertex 10.0 10.0 5.0
      vertex 85.0 20.0 5.0
      vertex 85.0 10.0 5.0
    endloop
  endfacet
  facet normal 0.0 0.0 -1.0
    outer loop
      vertex 10.0 10.0 5.0
      vertex 10.0 20.0 5.0
      vertex 85.0 20.0 5.0
    endloop
  endfacet
endsolid tropical_drainage_system