solid tree_mounting_strap_clips
  comment Tree mounting clips for wildlife camera enclosure
  comment Compatible with: 25-50mm tree straps
  comment Features: Anti-slip design, weather-resistant
  comment Quantity: Print 4 clips for secure mounting
  comment
  comment REPLACE THIS PLACEHOLDER with actual 3D model
  comment
  facet normal 0.0 0.0 1.0
    outer loop
      vertex 0.0 0.0 0.0
      vertex 30.0 0.0 0.0
      vertex 30.0 50.0 0.0
    endloop
  endfacet
  facet normal 0.0 0.0 1.0
    outer loop
      vertex 0.0 0.0 0.0
      vertex 30.0 50.0 0.0
      vertex 0.0 50.0 0.0
    endloop
  endfacet
  comment Strap routing slots would be modeled here
  comment Anti-slip texture on contact surfaces
  comment Mounting holes for enclosure attachment
endsolid tree_mounting_strap_clips