solid desert_dust_filtration
  facet normal 0.0 0.0 1.0
    outer loop
      vertex 25.0 25.0 0.0
      vertex 45.0 25.0 0.0
      vertex 45.0 45.0 0.0
    endloop
  endfacet
  facet normal 0.0 0.0 1.0
    outer loop
      vertex 25.0 25.0 0.0
      vertex 45.0 45.0 0.0
      vertex 25.0 45.0 0.0
    endloop
  endfacet
  facet normal 0.0 0.0 -1.0
    outer loop
      vertex 25.0 25.0 10.0
      vertex 45.0 45.0 10.0
      vertex 45.0 25.0 10.0
    endloop
  endfacet
  facet normal 0.0 0.0 -1.0
    outer loop
      vertex 25.0 25.0 10.0
      vertex 25.0 45.0 10.0
      vertex 45.0 45.0 10.0
    endloop
  endfacet
endsolid desert_dust_filtration